<svg width="24" height="19" viewBox="0 0 24 19" fill="none" xmlns="http://www.w3.org/2000/svg">
<path d="M13.3373 2.88301L19.5248 8.78926C19.6918 8.94855 19.7863 9.1693 19.7863 9.40028C19.7863 9.63125 19.6918 9.85168 19.5248 10.0113L13.3373 15.9175C13.0001 16.2383 12.4662 16.2262 12.1441 15.889C11.8223 15.555 11.8343 15.0189 12.1727 14.6958L16.8379 10.245H4.87911C4.41328 10.245 4.035 9.86671 4.035 9.40089C4.035 8.93507 4.41328 8.55749 4.87911 8.55749H16.8357L12.1705 4.10671C11.8327 3.78301 11.8221 3.24688 12.142 2.91184C12.4655 2.57434 12.9682 2.56239 13.3373 2.88301Z" fill="white"/>
</svg>
