<svg width="982" height="205" viewBox="0 0 982 205" fill="none" xmlns="http://www.w3.org/2000/svg">
<g clip-path="url(#clip0_1_200)">
<path d="M65.8775 152.006C322.988 124.025 929.325 84.9057 929.325 84.9057C929.325 84.9057 829.924 99.1921 670.809 119.921C511.695 140.649 247.554 181.092 247.554 181.092L373.94 169.5C373.94 169.5 634.363 143.704 862.909 133.12" stroke="#FE7B32" stroke-width="20.352" stroke-miterlimit="10" stroke-linecap="square" stroke-linejoin="bevel"/>
</g>
<path d="M207.002 128.103L206.51 116.053C204.731 119.499 202.963 122.048 201.204 123.698C199.446 125.348 197.427 126.7 195.149 127.752C192.902 128.803 189.846 129.393 185.983 129.52C184.066 129.567 182.141 129.429 180.209 129.105C178.276 128.751 176.398 128.24 174.575 127.572C172.752 126.872 170.953 126.033 169.18 125.053C167.436 124.041 165.841 122.868 164.394 121.534C160.822 118.214 157.986 114.322 155.885 109.858C153.813 105.362 152.667 100.426 152.448 95.0494C152.313 91.7433 152.584 88.5289 153.261 85.4062C153.938 82.2835 154.948 79.3484 156.29 76.6008C157.632 73.8533 159.278 71.341 161.228 69.0638C163.207 66.7545 165.416 64.7608 167.855 63.0827C170.324 61.4033 172.993 60.0717 175.862 59.0879C178.731 58.104 181.757 57.5471 184.94 57.417C188.586 57.268 191.773 57.633 194.502 58.5119C197.229 59.3599 200.192 61.0494 203.39 63.5805L213.772 63.1562L214.413 78.8219L200.091 79.4071C198.58 77.2714 197.171 75.735 195.864 74.798C194.587 73.8598 193.194 73.0965 191.685 72.5082C190.206 71.9187 188.153 71.6776 185.527 71.7849C182.931 71.891 180.545 72.5765 178.369 73.8416C176.192 75.1067 174.326 76.7769 172.77 78.8522C171.244 80.8954 170.073 83.2954 169.258 86.0524C168.44 88.7785 168.09 91.5628 168.206 94.4055C168.321 97.2173 168.847 99.873 169.785 102.373C170.723 104.872 172.083 107.107 173.866 109.077C175.647 111.016 177.688 112.48 179.988 113.469C182.288 114.458 184.72 114.901 187.284 114.796C190.56 114.662 193.379 113.587 195.741 111.572C198.104 109.556 199.759 106.874 200.705 103.523L187.31 104.071L186.792 91.3712L219.328 90.0416L220.86 127.537L207.002 128.103ZM229.02 56.8228L284.915 54.5387L285.895 78.5007L270.785 79.1181L270.378 69.1533L252.349 69.89L252.915 83.7481L266.866 83.178L267.415 96.6189L253.464 97.189L254.129 113.457L272.158 112.72L271.649 100.253L286.758 99.6354L287.787 124.802L231.891 127.086L231.372 114.387L238.741 114.086L236.961 70.5188L229.592 70.8199L229.02 56.8228ZM307.383 111.281L314.659 110.984L312.809 65.7016L304.281 66.0501L304.652 75.1343L289.543 75.7518L288.67 54.3853L352.584 51.7736L353.457 73.14L338.254 73.7612L337.883 64.677L328.197 65.0729L330.047 110.355L337.463 110.052L337.982 122.751L307.902 123.98L307.383 111.281ZM412.857 69.1343C412.658 68.0591 412.23 67.0552 411.573 66.1226C410.947 65.1888 410.141 64.4015 409.155 63.7609C408.199 63.0881 407.111 62.5755 405.889 62.223C404.699 61.8693 403.454 61.719 402.157 61.772C400.982 61.82 399.891 61.9884 398.881 62.2773C397.872 62.5661 396.991 62.989 396.24 63.5458C395.519 64.0705 394.943 64.744 394.512 65.5663C394.112 66.3874 393.935 67.3541 393.981 68.4664C394.038 69.8569 394.377 70.9572 394.998 71.7675C395.649 72.5456 396.448 73.1784 397.397 73.6658C398.376 74.1519 399.443 74.5261 400.599 74.7884C401.755 75.0506 402.881 75.3451 403.978 75.6717L416.898 79.4148C418.685 79.9608 420.372 80.743 421.961 81.7613C423.551 82.7797 424.933 84.0386 426.108 85.538C427.315 87.0363 428.283 88.7763 429.014 90.7582C429.745 92.7401 430.162 94.9825 430.264 97.4853C430.403 100.884 429.897 104.015 428.745 106.879C427.624 109.741 425.976 112.223 423.803 114.323C421.629 116.424 418.989 118.095 415.883 119.336C412.777 120.577 409.308 121.276 405.477 121.432C402.788 121.542 400.227 121.337 397.791 120.818C395.388 120.328 393.174 119.552 391.15 118.489C389.126 117.427 387.34 116.138 385.793 114.623C384.244 113.077 383.011 111.317 382.095 109.342L377.321 109.537L376.751 95.5866L393.529 94.9009L393.646 97.7745C393.703 99.165 393.972 100.438 394.452 101.595C394.964 102.75 395.685 103.742 396.617 104.571C397.548 105.399 398.704 106.033 400.083 106.472C401.462 106.88 403.063 107.046 404.886 106.972C407.667 106.858 409.757 106.138 411.158 104.812C412.557 103.455 413.21 101.633 413.116 99.3466C413.068 98.1725 412.766 97.2099 412.209 96.4589C411.682 95.6757 411.006 95.0379 410.181 94.5455C409.355 94.0221 408.44 93.5952 407.436 93.2649C406.432 92.9345 405.445 92.6344 404.475 92.3645L393.721 89.3685C391.687 88.8326 389.705 88.047 387.775 87.0116C385.875 85.975 384.165 84.6521 382.645 83.043C381.156 81.4325 379.933 79.5326 378.977 77.3433C378.05 75.1217 377.528 72.5742 377.411 69.7006C377.275 66.3636 377.771 63.372 378.901 60.726C380.03 58.0492 381.67 55.7692 383.821 53.8862C385.973 52.0031 388.559 50.5356 391.58 49.4837C394.601 48.4317 397.935 47.8312 401.581 47.6822C404.454 47.5648 407.126 47.7961 409.594 48.3761C412.062 48.9253 414.276 49.7169 416.237 50.7509C418.229 51.7837 419.92 52.9991 421.308 54.3971C422.725 55.7628 423.821 57.2037 424.595 58.7196L429.229 58.5302L429.801 72.5273L413.023 73.2129L412.857 69.1343ZM450.413 105.436L457.689 105.139L455.839 59.8569L447.311 60.2054L447.682 69.2896L432.573 69.9071L431.7 48.5406L495.614 45.9289L496.487 67.2953L481.285 67.9165L480.913 58.8323L471.227 59.2282L473.077 104.51L480.493 104.207L481.012 116.907L450.932 118.136L450.413 105.436ZM536.157 101.933L543.155 101.647L539.591 91.6715L517.992 92.554L515.254 102.787L522.669 102.484L523.188 115.183L496.538 116.272L496.019 103.573L501.257 103.359L518.046 45.0122L536.632 44.2527L557.708 101.052L562.807 100.844L563.326 113.543L536.676 114.632L536.157 101.933ZM521.169 80.5393L535.352 79.9598L527.28 57.4019L521.169 80.5393ZM566.804 43.0198L603.975 41.5008C607.59 41.3531 610.841 41.7619 613.728 42.7272C616.615 43.6925 619.069 45.0469 621.09 46.7903C623.11 48.5029 624.679 50.5434 625.797 52.9119C626.945 55.2481 627.572 57.714 627.678 60.3095C627.775 62.6887 627.598 64.7851 627.146 66.5987C626.725 68.411 626.048 70.0326 625.116 71.4634C624.215 72.893 623.076 74.1776 621.699 75.3171C620.32 76.4257 618.737 77.4499 616.95 78.3896C618.558 79.1285 619.999 80.3077 621.273 81.9269C622.545 83.5153 623.543 85.6101 624.268 88.2112L627.005 97.2452L632.799 97.0085L633.45 110.677L613.057 111.511L609.594 94.939C609.235 92.9729 608.733 91.2911 608.088 89.8938C607.473 88.4643 606.668 87.321 605.673 86.4641C604.678 85.5763 603.476 84.9445 602.068 84.5687C600.69 84.1917 599.059 84.0417 597.174 84.1187L591.196 84.3631L591.821 99.6579L598.263 99.3946L598.782 112.094L569.675 113.283L569.156 100.584L576.433 100.287L574.602 55.4681L567.325 55.7655L566.804 43.0198ZM589.989 54.8394L590.684 71.8491L599.907 71.4722C601.669 71.4002 603.238 71.1813 604.616 70.8155C606.023 70.4176 607.208 69.8585 608.169 69.1383C609.159 68.386 609.896 67.4738 610.378 66.4018C610.891 65.3285 611.118 64.0657 611.059 62.6135C610.948 59.8944 609.888 57.8176 607.88 56.3831C605.871 54.9486 602.982 54.3084 599.212 54.4625L589.989 54.8394ZM652.119 97.1939L659.396 96.8965L657.546 51.6145L649.018 51.963L649.389 61.0472L634.279 61.6646L633.406 40.2982L697.32 37.6864L698.193 59.0529L682.991 59.6741L682.62 50.5899L672.933 50.9857L674.784 96.2677L682.199 95.9647L682.718 108.664L652.638 109.893L652.119 97.1939ZM703.994 37.4137L759.89 35.1296L760.869 59.0916L745.76 59.709L745.353 49.7442L727.323 50.4809L727.889 64.339L741.84 63.7689L742.389 77.2098L728.439 77.7799L729.104 94.048L747.133 93.3113L746.623 80.8437L761.733 80.2263L762.761 105.393L706.866 107.677L706.347 94.978L713.716 94.6768L711.936 51.1097L704.566 51.4108L703.994 37.4137ZM766.518 34.8588L793.492 33.7565C796.706 33.6252 799.797 33.9167 802.767 34.631C805.767 35.3441 808.565 36.4058 811.161 37.8163C813.787 39.2256 816.179 40.9539 818.336 43.0013C820.523 45.0166 822.411 47.2916 824.001 49.8265C825.59 52.3614 826.847 55.111 827.773 58.0754C828.699 61.0397 829.228 64.1441 829.361 67.3884C829.493 70.6328 829.219 73.77 828.538 76.8C827.857 79.83 826.829 82.6885 825.453 85.3755C824.076 88.0316 822.381 90.484 820.369 92.7328C818.385 94.9494 816.143 96.8825 813.642 98.5323C811.17 100.15 808.468 101.436 805.536 102.392C802.634 103.346 799.577 103.889 796.364 104.02L769.389 105.122L768.87 92.423L774.478 92.1939L772.647 47.3753L767.039 47.6045L766.518 34.8588ZM788.034 46.7465L789.866 91.5651L795.752 91.3246C798.255 91.2223 800.595 90.5386 802.771 89.2736C804.948 88.0085 806.814 86.3383 808.37 84.263C809.924 82.1567 811.125 79.7245 811.971 76.9663C812.817 74.1772 813.175 71.2068 813.046 68.0551C812.919 64.9343 812.321 62.034 811.252 59.354C810.183 56.6741 808.788 54.3634 807.069 52.4219C805.349 50.4804 803.353 48.9835 801.082 47.9311C798.81 46.8788 796.423 46.4037 793.921 46.506L788.034 46.7465Z" fill="#009E99"/>
<defs>
<clipPath id="clip0_1_200">
<rect width="878.929" height="102.64" fill="white" transform="translate(51.7924 101.59) rotate(-2.34)"/>
</clipPath>
</defs>
</svg>
