<svg width="29" height="33" viewBox="0 0 29 33" fill="none" xmlns="http://www.w3.org/2000/svg">
<path d="M14.676 9.41243C10.701 9.41243 7.49479 12.6187 7.49479 16.5937C7.49479 20.5687 10.701 23.7749 14.676 23.7749C18.651 23.7749 21.8573 20.5687 21.8573 16.5937C21.8573 12.6187 18.651 9.41243 14.676 9.41243ZM14.676 21.2624C12.1073 21.2624 10.0073 19.1687 10.0073 16.5937C10.0073 14.0187 12.101 11.9249 14.676 11.9249C17.251 11.9249 19.3448 14.0187 19.3448 16.5937C19.3448 19.1687 17.2448 21.2624 14.676 21.2624ZM23.826 9.11868C23.826 10.0499 23.076 10.7937 22.151 10.7937C21.2198 10.7937 20.476 10.0437 20.476 9.11868C20.476 8.19368 21.226 7.44368 22.151 7.44368C23.076 7.44368 23.826 8.19368 23.826 9.11868ZM28.5823 10.8187C28.476 8.57493 27.9635 6.58743 26.3198 4.94993C24.6823 3.31243 22.6948 2.79993 20.451 2.68743C18.1385 2.55618 11.2073 2.55618 8.89479 2.68743C6.65729 2.79368 4.66979 3.30618 3.02604 4.94368C1.38229 6.58118 0.876038 8.56868 0.763538 10.8124C0.632288 13.1249 0.632288 20.0562 0.763538 22.3687C0.869788 24.6124 1.38229 26.5999 3.02604 28.2374C4.66979 29.8749 6.65104 30.3874 8.89479 30.4999C11.2073 30.6312 18.1385 30.6312 20.451 30.4999C22.6948 30.3937 24.6823 29.8812 26.3198 28.2374C27.9573 26.5999 28.4698 24.6124 28.5823 22.3687C28.7135 20.0562 28.7135 13.1312 28.5823 10.8187ZM25.5948 24.8499C25.1073 26.0749 24.1635 27.0187 22.9323 27.5124C21.0885 28.2437 16.7135 28.0749 14.676 28.0749C12.6385 28.0749 8.25729 28.2374 6.41979 27.5124C5.19479 27.0249 4.25104 26.0812 3.75729 24.8499C3.02604 23.0062 3.19479 18.6312 3.19479 16.5937C3.19479 14.5562 3.03229 10.1749 3.75729 8.33743C4.24479 7.11243 5.18854 6.16868 6.41979 5.67493C8.26354 4.94368 12.6385 5.11243 14.676 5.11243C16.7135 5.11243 21.0948 4.94993 22.9323 5.67493C24.1573 6.16243 25.101 7.10618 25.5948 8.33743C26.326 10.1812 26.1573 14.5562 26.1573 16.5937C26.1573 18.6312 26.326 23.0124 25.5948 24.8499Z" fill="white"/>
</svg>
