<svg width="20" height="16" viewBox="0 0 20 16" fill="none" xmlns="http://www.w3.org/2000/svg">
<path d="M17.1438 10.3313L13.9625 8.96688C13.3844 8.72663 12.7062 8.89266 12.3141 9.37563L11.2784 10.6403C9.63125 9.74375 8.25938 8.37188 7.3625 6.725L8.62875 5.68781C9.11844 5.28406 9.27969 4.62031 9.03 4.03656L7.66875 0.855314C7.39687 0.22747 6.7125 -0.11678 6.05 0.0360636L3.09906 0.720626C2.45219 0.868126 2 1.43438 2 2.0975C2 9.7625 8.2375 16 15.9031 16C16.5666 16 17.1347 15.5488 17.2834 14.9022L17.9647 11.95C18.1156 11.2844 17.7719 10.6031 17.1438 10.3313ZM16.3094 14.6781C16.2664 14.8647 16.0955 15.0003 15.9038 15.0003C8.78813 15.0003 3.00063 9.21281 3.00063 2.09719C3.00063 1.90381 3.13294 1.73844 3.32375 1.69469L6.27406 1.01C6.30531 1.00268 6.33656 0.999257 6.36731 0.999257C6.53087 0.999257 6.68325 1.09594 6.75012 1.25023L8.112 4.42835C8.18437 4.6 8.1375 4.79688 7.99375 4.91563L6.41563 6.20938C6.2375 6.35625 6.18125 6.60625 6.28438 6.81563C7.3275 8.93469 9.06906 10.675 11.1875 11.7188C11.395 11.8223 11.6478 11.7666 11.795 11.5869L13.0884 10.0088C13.2042 9.86619 13.4059 9.81931 13.5728 9.88866L16.7478 11.2499C16.9324 11.33 17.0339 11.5302 16.989 11.7255L16.3094 14.6781Z" fill="#0A3D48"/>
</svg>
